<svg width="22" height="22" viewBox="0 0 22 22" fill="none" xmlns="http://www.w3.org/2000/svg">
<path d="M15.4693 0.333252H6.53059C2.64792 0.333252 0.333252 2.64792 0.333252 6.53059V15.4693C0.333252 19.3519 2.64792 21.6666 6.53059 21.6666H15.4693C19.3519 21.6666 21.6666 19.3519 21.6666 15.4693V6.53059C21.6666 2.64792 19.3519 0.333252 15.4693 0.333252ZM8.83459 14.0933L6.43459 16.4933C6.27459 16.6533 6.07192 16.7279 5.86925 16.7279C5.66659 16.7279 5.45325 16.6533 5.30392 16.4933L4.50392 15.6933C4.18392 15.3839 4.18392 14.8719 4.50392 14.5626C4.81325 14.2533 5.31459 14.2533 5.63459 14.5626L5.86925 14.7973L7.70392 12.9626C8.01325 12.6533 8.51459 12.6533 8.83459 12.9626C9.14392 13.2719 9.14392 13.7839 8.83459 14.0933ZM8.83459 6.62659L6.43459 9.02659C6.27459 9.18659 6.07192 9.26125 5.86925 9.26125C5.66659 9.26125 5.45325 9.18659 5.30392 9.02659L4.50392 8.22659C4.18392 7.91725 4.18392 7.40525 4.50392 7.09592C4.81325 6.78659 5.31459 6.78659 5.63459 7.09592L5.86925 7.33059L7.70392 5.49592C8.01325 5.18659 8.51459 5.18659 8.83459 5.49592C9.14392 5.80525 9.14392 6.31725 8.83459 6.62659ZM16.9306 15.9279H11.3306C10.8933 15.9279 10.5306 15.5653 10.5306 15.1279C10.5306 14.6906 10.8933 14.3279 11.3306 14.3279H16.9306C17.1428 14.3279 17.3462 14.4122 17.4963 14.5622C17.6463 14.7123 17.7306 14.9157 17.7306 15.1279C17.7306 15.3401 17.6463 15.5436 17.4963 15.6936C17.3462 15.8436 17.1428 15.9279 16.9306 15.9279ZM16.9306 8.46125H11.3306C10.8933 8.46125 10.5306 8.09859 10.5306 7.66125C10.5306 7.22392 10.8933 6.86125 11.3306 6.86125H16.9306C17.1428 6.86125 17.3462 6.94554 17.4963 7.09557C17.6463 7.2456 17.7306 7.44908 17.7306 7.66125C17.7306 7.87343 17.6463 8.07691 17.4963 8.22694C17.3462 8.37697 17.1428 8.46125 16.9306 8.46125Z" fill="white"/>
</svg>
