<svg width="24" height="18" viewBox="0 0 24 18" fill="none" xmlns="http://www.w3.org/2000/svg">
<path d="M8.08166 3.78094C7.99626 3.69537 7.89482 3.62748 7.78316 3.58115C7.67149 3.53483 7.55178 3.51099 7.43089 3.51099C7.30999 3.51099 7.19029 3.53483 7.07862 3.58115C6.96695 3.62748 6.86551 3.69537 6.78012 3.78094C3.90012 6.65171 3.90012 11.3409 6.78012 14.2209C6.95342 14.3922 7.18724 14.4882 7.43089 14.4882C7.67453 14.4882 7.90835 14.3922 8.08166 14.2209C8.16723 14.1355 8.23512 14.0341 8.28144 13.9224C8.32776 13.8108 8.3516 13.6911 8.3516 13.5702C8.3516 13.4493 8.32776 13.3296 8.28144 13.2179C8.23512 13.1062 8.16723 13.0048 8.08166 12.9194C7.04415 11.8792 6.4615 10.4701 6.4615 9.00094C6.4615 7.5318 7.04415 6.12263 8.08166 5.08248C8.16723 4.99708 8.23512 4.89564 8.28144 4.78398C8.32776 4.67231 8.3516 4.5526 8.3516 4.43171C8.3516 4.31081 8.32776 4.19111 8.28144 4.07944C8.23512 3.96777 8.16723 3.86633 8.08166 3.78094ZM19.8324 16.8332C24.1524 12.5132 24.1524 5.48863 19.8324 1.16863C19.747 1.08306 19.6456 1.01517 19.5339 0.968846C19.4223 0.922524 19.3026 0.898682 19.1817 0.898682C19.0608 0.898682 18.9411 0.922524 18.8294 0.968846C18.7177 1.01517 18.6163 1.08306 18.5309 1.16863C18.4453 1.25403 18.3774 1.35546 18.3311 1.46713C18.2848 1.5788 18.2609 1.69851 18.2609 1.8194C18.2609 1.94029 18.2848 2.06 18.3311 2.17167C18.3774 2.28334 18.4453 2.38477 18.5309 2.47017C22.1309 6.07017 22.1309 11.9317 18.5309 15.5225C18.1709 15.8825 18.1709 16.4732 18.5309 16.8332C18.7042 17.0045 18.938 17.1005 19.1817 17.1005C19.4253 17.1005 19.6591 17.0045 19.8324 16.8332Z" fill="white"/>
<path d="M15.9185 14.2209C16.0918 14.3922 16.3256 14.4882 16.5693 14.4882C16.8129 14.4882 17.0467 14.3922 17.22 14.2209C20.1 11.3409 20.1 6.66094 17.22 3.78094C17.1346 3.69548 17.0331 3.62769 16.9215 3.58144C16.8098 3.53519 16.6901 3.51138 16.5693 3.51138C16.4484 3.51138 16.3287 3.53519 16.2171 3.58144C16.1054 3.62769 16.004 3.69548 15.9185 3.78094C15.833 3.8664 15.7653 3.96785 15.719 4.07951C15.6728 4.19117 15.6489 4.31085 15.6489 4.43171C15.6489 4.55257 15.6728 4.67224 15.719 4.7839C15.7653 4.89556 15.833 4.99702 15.9185 5.08248C16.956 6.12263 17.5387 7.5318 17.5387 9.00094C17.5387 10.4701 16.956 11.8792 15.9185 12.9194C15.8329 13.0048 15.765 13.1062 15.7187 13.2179C15.6724 13.3296 15.6486 13.4493 15.6486 13.5702C15.6486 13.6911 15.6724 13.8108 15.7187 13.9224C15.765 14.0341 15.8329 14.1355 15.9185 14.2209ZM4.16773 16.8332C4.34092 17.0047 4.57479 17.1009 4.8185 17.1009C5.06222 17.1009 5.29609 17.0047 5.46927 16.8332C5.82927 16.4732 5.82927 15.8825 5.46927 15.5225C1.86927 11.9317 1.86927 6.07017 5.46927 2.47017C5.55485 2.38477 5.62274 2.28334 5.66906 2.17167C5.71538 2.06 5.73922 1.94029 5.73922 1.8194C5.73922 1.69851 5.71538 1.5788 5.66906 1.46713C5.62274 1.35546 5.55485 1.25403 5.46927 1.16863C5.38388 1.08306 5.28244 1.01517 5.17077 0.968846C5.0591 0.922524 4.9394 0.898682 4.8185 0.898682C4.69761 0.898682 4.5779 0.922524 4.46623 0.968846C4.35457 1.01517 4.25313 1.08306 4.16773 1.16863C-0.152266 5.48863 -0.152266 12.5132 4.16773 16.8332ZM12.0047 5.95663C11.1981 5.95639 10.4245 6.27655 9.85402 6.84669C9.28354 7.41683 8.9629 8.19024 8.96266 8.99678C8.96241 9.80333 9.28258 10.5769 9.85272 11.1474C10.4229 11.7179 11.1963 12.0385 12.0028 12.0388C12.8094 12.039 13.583 11.7189 14.1534 11.1487C14.7239 10.5786 15.0446 9.80517 15.0448 8.99863C15.0451 8.19209 14.7249 7.41848 14.1548 6.84799C13.5846 6.27751 12.8112 5.95688 12.0047 5.95663Z" fill="white"/>
</svg>
