<svg width="12" height="13" viewBox="0 0 12 13" fill="none" xmlns="http://www.w3.org/2000/svg">
    <g clip-path="url(#clip0_96_121)">
        <path fill-rule="evenodd" clip-rule="evenodd"
              d="M6 12.5C9.31371 12.5 12 9.81371 12 6.5C12 3.18629 9.31371 0.5 6 0.5C2.68629 0.5 0 3.18629 0 6.5C0 9.81371 2.68629 12.5 6 12.5ZM6.00002 3.5C6.27616 3.5 6.50002 3.72386 6.50002 4V6.7C6.50002 6.97614 6.27616 7.2 6.00002 7.2C5.72388 7.2 5.50002 6.97614 5.50002 6.7V4C5.50002 3.72386 5.72388 3.5 6.00002 3.5ZM6.50003 8.5C6.50003 8.77614 6.27617 9 6.00003 9C5.72388 9 5.50003 8.77614 5.50003 8.5C5.50003 8.22386 5.72388 8 6.00003 8C6.27617 8 6.50003 8.22386 6.50003 8.5Z"
              fill="#FF7171"/>
    </g>
    <defs>
        <clipPath id="clip0_96_121">
            <rect width="12" height="12" fill="white" transform="translate(0 0.5)"/>
        </clipPath>
    </defs>
</svg>
