<svg width="30" height="30" viewBox="0 0 30 30" fill="none" xmlns="http://www.w3.org/2000/svg">
<path d="M27.3633 7.03125H23.7867C24.3397 6.29625 24.668 5.38307 24.668 4.39453C24.668 1.97139 22.6966 0 20.2734 0C18.8138 0 17.7375 0.522949 16.8862 1.64572C16.174 2.5851 15.6532 3.89666 15 5.55381C14.3468 3.8966 13.826 2.5851 13.1138 1.64572C12.2625 0.522949 11.1862 0 9.72656 0C7.30342 0 5.33203 1.97139 5.33203 4.39453C5.33203 5.38307 5.66033 6.29625 6.21334 7.03125H2.63672C1.18283 7.03125 0 8.21408 0 9.66797V11.4258C0 12.5716 0.734824 13.5485 1.75781 13.9113V27.3633C1.75781 28.8172 2.94064 30 4.39453 30H25.6055C27.0594 30 28.2422 28.8172 28.2422 27.3633V13.9113C29.2652 13.5485 30 12.5716 30 11.4258V9.66797C30 8.21408 28.8172 7.03125 27.3633 7.03125ZM16.6133 6.2543C17.9597 2.8384 18.4716 1.75781 20.2734 1.75781C21.7273 1.75781 22.9102 2.94064 22.9102 4.39453C22.9102 5.84842 21.7273 7.03125 20.2734 7.03125H16.3059C16.4136 6.76084 16.5163 6.50051 16.6133 6.2543ZM9.72656 1.75781C11.5284 1.75781 12.0403 2.8384 13.3867 6.2543C13.4837 6.50051 13.5864 6.76084 13.6941 7.03125H9.72656C8.27268 7.03125 7.08984 5.84842 7.08984 4.39453C7.08984 2.94064 8.27268 1.75781 9.72656 1.75781ZM11.4844 28.2422H4.39453C3.9099 28.2422 3.51562 27.8479 3.51562 27.3633V14.0625H11.4844V28.2422ZM11.4844 12.3047H2.63672C2.15209 12.3047 1.75781 11.9104 1.75781 11.4258V9.66797C1.75781 9.18334 2.15209 8.78906 2.63672 8.78906H11.4844V12.3047ZM16.7578 28.2422H13.2422V8.78906H16.7578V28.2422ZM26.4844 27.3633C26.4844 27.8479 26.0901 28.2422 25.6055 28.2422H18.5156V14.0625H26.4844V27.3633ZM28.2422 11.4258C28.2422 11.9104 27.8479 12.3047 27.3633 12.3047H18.5156V8.78906H27.3633C27.8479 8.78906 28.2422 9.18334 28.2422 9.66797V11.4258Z" fill="white"/>
</svg>
