<svg width="108" height="13" viewBox="0 0 108 13" fill="none" xmlns="http://www.w3.org/2000/svg">
<path fill-rule="evenodd" clip-rule="evenodd" d="M9.03546 5.20557H4.74721V6.47808H7.78865C7.63834 8.26252 6.15366 9.02352 4.75238 9.02352C2.95947 9.02352 1.39496 7.61291 1.39496 5.63567C1.39496 3.70954 2.8864 2.22629 4.75625 2.22629C6.19902 2.22629 7.04918 3.14593 7.04918 3.14593L7.93996 2.22328C7.93996 2.22328 6.79651 0.950195 4.71074 0.950195C2.0549 0.950052 0 3.19173 0 5.61299C0 7.98545 1.93273 10.299 4.7785 10.299C7.28117 10.2989 9.11312 8.58452 9.11312 6.04927C9.11312 5.51437 9.03546 5.20528 9.03546 5.20528V5.20557Z" fill="#00CC33"/>
<path fill-rule="evenodd" clip-rule="evenodd" d="M12.5662 5.46438C13.4316 5.46438 14.2516 6.16394 14.2516 7.29117C14.2516 8.3947 13.435 9.11408 12.5623 9.11408C11.6034 9.11408 10.8467 8.34618 10.8467 7.28255C10.8467 6.24161 11.5937 5.46438 12.5662 5.46438ZM12.5487 4.28418C10.7891 4.28418 9.52808 5.65976 9.52808 7.26432C9.52808 8.89228 10.7513 10.2936 12.5694 10.2936C14.2153 10.2936 15.5639 9.03555 15.5639 7.29921C15.5639 5.30905 13.9952 4.28418 12.5487 4.28418Z" fill="#00CC33"/>
<path fill-rule="evenodd" clip-rule="evenodd" d="M19.1352 5.46438C20.0007 5.46438 20.8207 6.16394 20.8207 7.29117C20.8207 8.3947 20.004 9.11408 19.1313 9.11408C18.1725 9.11408 17.4159 8.34618 17.4159 7.28255C17.4159 6.24161 18.163 5.46438 19.1352 5.46438ZM19.1178 4.28418C17.3583 4.28418 16.0972 5.65976 16.0972 7.26432C16.0972 8.89228 17.3203 10.2936 19.1385 10.2936C20.7844 10.2936 22.1328 9.03555 22.1328 7.29921C22.1328 5.30905 20.5643 4.28418 19.1178 4.28418Z" fill="#00CC33"/>
<path fill-rule="evenodd" clip-rule="evenodd" d="M25.6789 5.46501C26.4708 5.46501 27.2839 6.14103 27.2839 7.29568C27.2839 8.46941 26.4724 9.11629 25.6614 9.11629C24.8005 9.11629 23.9993 8.41716 23.9993 7.30687C23.9993 6.15323 24.8313 5.46501 25.6789 5.46501ZM25.5619 4.28711C23.9469 4.28711 22.6772 5.70174 22.6772 7.2895C22.6772 9.09791 24.1492 10.2974 25.5341 10.2974C26.3905 10.2974 26.8459 9.9574 27.1823 9.56735V10.1597C27.1823 11.1965 26.5526 11.8174 25.6025 11.8174C24.6848 11.8172 24.2245 11.1349 24.0646 10.7476L22.9097 11.2303C23.3194 12.0964 24.1441 12.9998 25.6122 12.9998C27.218 12.9998 28.4419 11.9883 28.4419 9.8671V4.46771H27.1823V4.97677C26.7949 4.5593 26.2651 4.28711 25.5619 4.28711Z" fill="#00CC33"/>
<path fill-rule="evenodd" clip-rule="evenodd" d="M34.0952 5.43558C34.6442 5.43558 35.0393 5.72729 35.2071 6.07729L32.5165 7.20193C32.4005 6.33124 33.2254 5.43558 34.0952 5.43558ZM34.0427 4.27979C32.5191 4.27979 31.24 5.492 31.24 7.2806C31.24 9.17328 32.6658 10.2958 34.189 10.2958C35.4603 10.2958 36.2406 9.60022 36.7064 8.97704L35.6675 8.28594C35.398 8.70427 34.9474 9.11299 34.1954 9.11299C33.3509 9.11299 32.9624 8.65044 32.7217 8.20253L36.7508 6.53065L36.5416 6.04068C36.1523 5.08128 35.2443 4.27993 34.0428 4.27993L34.0427 4.27979Z" fill="#00CC33"/>
<path fill-rule="evenodd" clip-rule="evenodd" d="M29.3193 10.1178H30.6428V1.26123H29.3193V10.1178Z" fill="#00CC33"/>
<path d="M46 2.51287L46.9458 5.2139L47.0603 5.54067L47.4064 5.54852L50.2675 5.6134L47.991 7.34761L47.7155 7.55741L47.815 7.88904L48.6375 10.6302L46.2846 9.00093L46 8.80383L45.7154 9.00093L43.3625 10.6302L44.185 7.88904L44.2845 7.55741L44.009 7.34761L41.7325 5.6134L44.5936 5.54852L44.9397 5.54067L45.0542 5.2139L46 2.51287Z" fill="#00CC33" stroke="#00CC33"/>
<path d="M59 2.51287L59.9458 5.2139L60.0603 5.54067L60.4064 5.54852L63.2675 5.6134L60.991 7.34761L60.7155 7.55741L60.815 7.88904L61.6375 10.6302L59.2846 9.00093L59 8.80383L58.7154 9.00093L56.3625 10.6302L57.185 7.88904L57.2845 7.55741L57.009 7.34761L54.7325 5.6134L57.5936 5.54852L57.9397 5.54067L58.0542 5.2139L59 2.51287Z" fill="#00CC33" stroke="#00CC33"/>
<path d="M72.5 2.40967L73.5684 5.226L73.6881 5.54148L74.0254 5.54854L77.1471 5.61388L74.6975 7.33634L74.3955 7.54874L74.5096 7.89991L75.4135 10.6809L72.7693 8.99071L72.5 8.81859L72.2307 8.99071L69.5865 10.6809L70.4904 7.89991L70.6045 7.54874L70.3025 7.33634L67.8529 5.61388L70.9746 5.54854L71.3119 5.54148L71.4316 5.226L72.5 2.40967Z" fill="#00CC33" stroke="#00CC33"/>
<path d="M87 2.32207L88.1912 5.23775L88.3155 5.54217L88.6443 5.54856L92.0255 5.61427L89.4029 7.32669L89.0749 7.54084L89.2043 7.91054L90.1889 10.7233L87.2552 8.98203L87 8.83056L86.7448 8.98203L83.8111 10.7233L84.7957 7.91054L84.9251 7.54084L84.5971 7.32669L81.9745 5.61427L85.3557 5.54856L85.6845 5.54217L85.8088 5.23775L87 2.32207Z" fill="#00CC33" stroke="#00CC33"/>
<path d="M101.5 2.40967L102.568 5.226L102.688 5.54148L103.025 5.54854L106.147 5.61388L103.698 7.33634L103.395 7.54874L103.51 7.89991L104.414 10.6809L101.769 8.99071L101.5 8.81859L101.231 8.99071L98.5865 10.6809L99.4904 7.89991L99.6045 7.54874L99.3025 7.33634L96.8529 5.61388L99.9746 5.54854L100.312 5.54148L100.432 5.226L101.5 2.40967Z" fill="#00CC33" stroke="#00CC33"/>
</svg>
