<svg width="70" height="34" viewBox="0 0 70 34" fill="none" xmlns="http://www.w3.org/2000/svg">
<path fill-rule="evenodd" clip-rule="evenodd" d="M17.7028 8.75933H9.61121V11.1605H15.3502C15.0666 14.5276 12.2651 15.9635 9.62096 15.9635C6.23787 15.9635 3.28576 13.3018 3.28576 9.5709C3.28576 5.93643 6.09999 3.13764 9.62828 3.13764C12.3507 3.13764 13.9549 4.87293 13.9549 4.87293L15.6357 3.13195C15.6357 3.13195 13.4781 0.729736 9.54241 0.729736C4.53102 0.729465 0.653564 4.95935 0.653564 9.5281C0.653564 14.0048 4.3005 18.3704 9.67026 18.3704C14.3926 18.3701 17.8494 15.1352 17.8494 10.3513C17.8494 9.342 17.7028 8.75879 17.7028 8.75879V8.75933Z" fill="white"/>
<path fill-rule="evenodd" clip-rule="evenodd" d="M24.3646 9.2477C25.9975 9.2477 27.5448 10.5677 27.5448 12.6947C27.5448 14.777 26.004 16.1344 24.3573 16.1344C22.5478 16.1344 21.1199 14.6855 21.1199 12.6785C21.1199 10.7143 22.5296 9.2477 24.3646 9.2477ZM24.3315 7.02075C21.0113 7.02075 18.6318 9.61638 18.6318 12.6441C18.6318 15.7159 20.9401 18.36 24.3705 18.36C27.4763 18.36 30.021 15.9863 30.021 12.7099C30.021 8.9546 27.061 7.02075 24.3315 7.02075Z" fill="white"/>
<path fill-rule="evenodd" clip-rule="evenodd" d="M36.7608 9.2477C38.394 9.2477 39.9413 10.5677 39.9413 12.6947C39.9413 14.777 38.4002 16.1344 36.7535 16.1344C34.9442 16.1344 33.5167 14.6855 33.5167 12.6785C33.5167 10.7143 34.9264 9.2477 36.7608 9.2477ZM36.728 7.02075C33.4081 7.02075 31.0283 9.61638 31.0283 12.6441C31.0283 15.7159 33.3363 18.36 36.767 18.36C39.8727 18.36 42.4172 15.9863 42.4172 12.7099C42.4172 8.9546 39.4575 7.02075 36.728 7.02075Z" fill="white"/>
<path fill-rule="evenodd" clip-rule="evenodd" d="M49.1078 9.24947C50.602 9.24947 52.1363 10.5251 52.1363 12.7038C52.1363 14.9186 50.605 16.1392 49.0747 16.1392C47.4502 16.1392 45.9384 14.82 45.9384 12.7249C45.9384 10.5481 47.5085 9.24947 49.1078 9.24947ZM48.887 7.02686C45.8396 7.02686 43.4438 9.69616 43.4438 12.6922C43.4438 16.1045 46.2212 18.3678 48.8345 18.3678C50.4506 18.3678 51.3098 17.7263 51.9445 16.9903V18.108C51.9445 20.0643 50.7564 21.2359 48.9637 21.2359C47.2319 21.2356 46.3635 19.9481 46.0617 19.2173L43.8824 20.1282C44.6555 21.7625 46.2118 23.4672 48.9818 23.4672C52.012 23.4672 54.3213 21.5585 54.3213 17.5559V7.36763H51.9445V8.32819C51.2137 7.54045 50.2138 7.02686 48.887 7.02686Z" fill="white"/>
<path fill-rule="evenodd" clip-rule="evenodd" d="M64.9892 9.19384C66.0251 9.19384 66.7706 9.74428 67.0872 10.4047L62.0103 12.5268C61.7914 10.8839 63.3479 9.19384 64.9892 9.19384ZM64.8901 7.01294C62.0152 7.01294 59.6016 9.3003 59.6016 12.6753C59.6016 16.2466 62.292 18.3647 65.1661 18.3647C67.5651 18.3647 69.0373 17.0522 69.9163 15.8763L67.9559 14.5723C67.4475 15.3616 66.5972 16.1328 65.1783 16.1328C63.5847 16.1328 62.8516 15.2601 62.3974 14.4149L70 11.2602L69.6054 10.3356C68.8707 8.52529 67.1574 7.01321 64.8903 7.01321L64.8901 7.01294Z" fill="white"/>
<path fill-rule="evenodd" clip-rule="evenodd" d="M55.9775 18.0279H58.4748V1.31616H55.9775V18.0279Z" fill="white"/>
<path d="M6.60156 21.2402L8.48947 24.5897L12.2584 25.3502L9.65627 28.1808L10.0977 32.0003L6.60156 30.4001L3.10541 32.0003L3.54684 28.1808L0.94468 25.3502L4.71364 24.5897L6.60156 21.2402Z" fill="white"/>
<path d="M20.9285 21.2402L22.8164 24.5897L26.5853 25.3502L23.9832 28.1808L24.4246 32.0003L20.9285 30.4001L17.4323 32.0003L17.8737 28.1808L15.2716 25.3502L19.0405 24.5897L20.9285 21.2402Z" fill="white"/>
<path d="M35.2551 21.2402L37.143 24.5897L40.912 25.3502L38.3098 28.1808L38.7513 32.0003L35.2551 30.4001L31.759 32.0003L32.2004 28.1808L29.5982 25.3502L33.3672 24.5897L35.2551 21.2402Z" fill="white"/>
<path d="M49.582 21.2402L51.4699 24.5897L55.2389 25.3502L52.6367 28.1808L53.0782 32.0003L49.582 30.4001L46.0859 32.0003L46.5273 28.1808L43.9251 25.3502L47.6941 24.5897L49.582 21.2402Z" fill="white"/>
<path d="M63.908 21.2402L65.7959 24.5897L69.5648 25.3502L66.9627 28.1808L67.4041 32.0003L63.908 30.4001L60.4118 32.0003L60.8532 28.1808L58.2511 25.3502L62.02 24.5897L63.908 21.2402Z" fill="white"/>
</svg>
