<svg width="30" height="30" viewBox="0 0 30 30" fill="none" xmlns="http://www.w3.org/2000/svg">
<path d="M28.0052 15.3887C27.9456 15.2678 27.9146 15.1349 27.9146 15.0001C27.9146 14.8654 27.9456 14.7324 28.0052 14.6115L29.1241 12.3226C29.747 11.0481 29.2534 9.5291 28.0003 8.86424L25.7498 7.6701C25.6306 7.60733 25.5274 7.51799 25.4482 7.40899C25.3689 7.29998 25.3159 7.17424 25.293 7.04146L24.8528 4.53196C24.6077 3.13474 23.3153 2.19584 21.911 2.39453L19.3883 2.75136C19.255 2.77064 19.119 2.75901 18.9908 2.71736C18.8627 2.67572 18.7459 2.60518 18.6493 2.51119L16.8182 0.739793C15.7986 -0.246568 14.2014 -0.246627 13.1818 0.739793L11.3507 2.51136C11.2541 2.60533 11.1373 2.67586 11.0091 2.7175C10.881 2.75914 10.745 2.77079 10.6116 2.75154L8.08902 2.39471C6.68424 2.1959 5.39226 3.13492 5.14716 4.53213L4.70701 7.04151C4.68413 7.1743 4.63105 7.30005 4.55186 7.40906C4.47266 7.51807 4.36948 7.60742 4.25027 7.67022L1.9997 8.86436C0.746621 9.52916 0.25303 11.0483 0.875995 12.3228L1.99484 14.6117C2.05439 14.7325 2.08537 14.8655 2.08537 15.0002C2.08537 15.135 2.05439 15.2679 1.99484 15.3888L0.875936 17.6777C0.252971 18.9521 0.746562 20.4712 1.99964 21.136L4.25021 22.3302C4.36943 22.393 4.47263 22.4823 4.55183 22.5913C4.63104 22.7003 4.68413 22.826 4.70701 22.9588L5.14716 25.4683C5.37029 26.7403 6.46094 27.6323 7.71443 27.6322C7.83789 27.6322 7.96316 27.6235 8.08908 27.6057L10.6117 27.2489C10.7451 27.2296 10.8811 27.2412 11.0092 27.2828C11.1374 27.3245 11.2542 27.395 11.3507 27.489L13.1818 29.2604C13.6917 29.7537 14.3457 30.0002 15 30.0002C15.6541 30.0001 16.3085 29.7535 16.8181 29.2604L18.6493 27.489C18.8469 27.298 19.1162 27.2107 19.3883 27.2489L21.911 27.6057C23.3159 27.8044 24.6077 26.8655 24.8528 25.4683L25.293 22.9589C25.3159 22.8261 25.369 22.7003 25.4482 22.5913C25.5274 22.4823 25.6306 22.393 25.7498 22.3302L28.0003 21.136C29.2534 20.4712 29.747 18.9521 29.1241 17.6776L28.0052 15.3887ZM27.1894 19.6075L24.9388 20.8016C24.2212 21.1824 23.7291 21.8597 23.5888 22.6598L23.1486 25.1693C23.1098 25.3958 22.984 25.5982 22.7981 25.7333C22.6121 25.8684 22.3808 25.9255 22.1533 25.8924L19.6307 25.5356C18.8262 25.4216 18.0302 25.6805 17.4463 26.2453L15.6151 28.0167C15.4505 28.1771 15.2298 28.2669 15 28.2669C14.7701 28.2669 14.5494 28.1771 14.3848 28.0167L12.5537 26.2453C12.0602 25.7679 11.4151 25.5092 10.7417 25.5092C10.6183 25.5092 10.4939 25.5179 10.3693 25.5355L7.84668 25.8924C7.61924 25.9254 7.38789 25.8683 7.20196 25.7332C7.01603 25.5981 6.89022 25.3957 6.85135 25.1692L6.41114 22.6597C6.27075 21.8596 5.77868 21.1823 5.06109 20.8016L2.81051 19.6075C2.60705 19.5006 2.45341 19.3184 2.38237 19.0998C2.31134 18.8812 2.32854 18.6435 2.4303 18.4374L3.5492 16.1485C3.90592 15.4186 3.90592 14.5815 3.5492 13.8517L2.4303 11.5628C2.32854 11.3567 2.31134 11.119 2.38237 10.9004C2.45341 10.6818 2.60705 10.4996 2.81051 10.3927L5.06109 9.19857C5.77862 8.81777 6.27075 8.14055 6.41108 7.3404L6.85123 4.83096C6.89005 4.60442 7.01584 4.40201 7.20179 4.26691C7.38773 4.13181 7.61911 4.07471 7.84656 4.1078L10.3692 4.46463C11.1734 4.57848 11.9697 4.31967 12.5536 3.75489L14.3848 1.9835C14.5493 1.82307 14.7701 1.73328 14.9999 1.73328C15.2297 1.73328 15.4505 1.82307 15.615 1.9835L17.4462 3.75489C18.03 4.31973 18.8263 4.57848 19.6306 4.46463L22.1532 4.1078C22.3806 4.07474 22.612 4.13185 22.7979 4.26694C22.9839 4.40204 23.1097 4.60443 23.1485 4.83096L23.5887 7.34046C23.7291 8.14061 24.2211 8.81789 24.9387 9.19857L27.1893 10.3927C27.3928 10.4996 27.5464 10.6818 27.6174 10.9004C27.6885 11.119 27.6713 11.3567 27.5695 11.5628L26.4506 13.8517C26.0939 14.5814 26.0939 15.4186 26.4506 16.1484L27.5695 18.4373C27.6713 18.6434 27.6885 18.8811 27.6175 19.0997C27.5465 19.3184 27.3928 19.5006 27.1894 19.6075Z" fill="white"/>
<path d="M21.3213 8.6787C20.9835 8.34085 20.4356 8.34085 20.0978 8.6787L8.67855 20.098C8.3407 20.4358 8.3407 20.9836 8.67855 21.3215C8.7588 21.4019 8.85415 21.4657 8.95912 21.5092C9.0641 21.5527 9.17664 21.575 9.29027 21.5749C9.51163 21.5749 9.73312 21.4904 9.90198 21.3215L21.3212 9.90225C21.6592 9.56434 21.6592 9.01661 21.3213 8.6787ZM11.5394 7.21387C9.79025 7.21387 8.36719 8.63693 8.36719 10.3861C8.36719 12.1352 9.79025 13.5582 11.5394 13.5582C13.2885 13.5582 14.7116 12.1352 14.7116 10.3861C14.7116 8.63693 13.2885 7.21387 11.5394 7.21387ZM11.5394 11.8279C10.7443 11.8279 10.0975 11.1811 10.0975 10.386C10.0975 9.59094 10.7443 8.94413 11.5394 8.94413C12.3344 8.94413 12.9813 9.59094 12.9813 10.386C12.9812 11.1811 12.3344 11.8279 11.5394 11.8279ZM18.4604 16.442C16.7113 16.442 15.2882 17.865 15.2882 19.6142C15.2882 21.3633 16.7113 22.7864 18.4604 22.7864C20.2096 22.7864 21.6326 21.3633 21.6326 19.6142C21.6326 17.865 20.2096 16.442 18.4604 16.442ZM18.4604 21.056C17.6654 21.056 17.0185 20.4092 17.0185 19.6142C17.0185 18.8191 17.6653 18.1723 18.4604 18.1723C19.2555 18.1723 19.9023 18.8191 19.9023 19.6142C19.9023 20.4092 19.2555 21.056 18.4604 21.056Z" fill="white"/>
</svg>
