<svg width="22" height="18" viewBox="0 0 22 18" fill="none" xmlns="http://www.w3.org/2000/svg">
<path fill-rule="evenodd" clip-rule="evenodd" d="M1.48294 12.1289L0.265938 4.52388C0.22682 4.27963 0.258978 4.02928 0.358556 3.80284C0.458134 3.5764 0.620906 3.38348 0.827358 3.24722C1.03381 3.11096 1.27518 3.03713 1.52254 3.03459C1.76989 3.03204 2.01273 3.10089 2.22194 3.23288L6.03494 5.64088L10.0309 1.06088C10.1516 0.922538 10.3006 0.811645 10.4677 0.73566C10.6349 0.659676 10.8163 0.620361 10.9999 0.620361C11.1835 0.620361 11.365 0.659676 11.5322 0.73566C11.6993 0.811645 11.8482 0.922538 11.9689 1.06088L15.9649 5.64088L19.7779 3.23288C19.9872 3.10135 20.23 3.03287 20.4771 3.03562C20.7243 3.03837 20.9654 3.11225 21.1717 3.24841C21.378 3.38457 21.5408 3.57726 21.6405 3.80345C21.7402 4.02963 21.7726 4.27974 21.7339 4.52388L20.5169 12.1289H1.48294ZM20.2769 13.6289L19.9219 15.8459C19.8537 16.2736 19.6352 16.6631 19.3056 16.9442C18.9761 17.2254 18.5571 17.3798 18.1239 17.3799H3.87594C2.98194 17.3799 2.21894 16.7299 2.07794 15.8459L1.72294 13.6289H20.2769Z" fill="white"/>
</svg>
